<?xml version="1.0" encoding="UTF-8" standalone="no"?>
<!-- Created with Inkscape (http://www.inkscape.org/) -->

<svg
   version="1.1"
   id="svg1"
   width="137.89091"
   height="125.96364"
   viewBox="0 0 137.89091 125.96364"
   sodipodi:docname="BATOT BAS.svg"
   inkscape:version="1.4.3 (0d15f75, 2025-12-25)"
   xmlns:inkscape="http://www.inkscape.org/namespaces/inkscape"
   xmlns:sodipodi="http://sodipodi.sourceforge.net/DTD/sodipodi-0.dtd"
   xmlns="http://www.w3.org/2000/svg"
   xmlns:svg="http://www.w3.org/2000/svg">
  <defs
     id="defs1" />
  <sodipodi:namedview
     id="namedview1"
     pagecolor="#ffffff"
     bordercolor="#000000"
     borderopacity="0.25"
     inkscape:showpageshadow="2"
     inkscape:pageopacity="0.0"
     inkscape:pagecheckerboard="0"
     inkscape:deskcolor="#d1d1d1"
     inkscape:zoom="1.6040801"
     inkscape:cx="135.90344"
     inkscape:cy="173.61976"
     inkscape:window-width="2560"
     inkscape:window-height="1361"
     inkscape:window-x="-9"
     inkscape:window-y="-9"
     inkscape:window-maximized="1"
     inkscape:current-layer="g1" />
  <g
     inkscape:groupmode="layer"
     inkscape:label="Image"
     id="g1">
    <g
       id="g2"
       transform="translate(-1.870229,-0.62340982)">
      <path
         style="fill:#a9cce1"
         d="M 8.9975061,104.15883 C 7.8973446,103.70377 7.1110639,102.53102 6.8083947,100.89373 6.6115488,99.828896 6.5372256,86.514331 6.5900864,61.785075 6.6649537,26.760789 6.7036595,24.229792 7.1776627,23.363114 8.2136395,21.468912 7.7805658,21.527273 20.800643,21.527273 c 7.595445,0 12.136111,-0.110499 12.706128,-0.309208 1.207311,-0.420871 1.308597,-1.130695 0.376317,-2.637281 -0.945169,-1.527416 -1.474425,-3.501667 -1.447765,-5.400513 l 0.01964,-1.398453 0.356943,1.323473 c 1.493143,5.536265 7.901716,8.291267 13.131601,5.645187 1.946707,-0.984944 3.157942,-2.282681 4.18386,-4.482658 0.649286,-1.392327 0.766973,-1.51367 0.859303,-0.886002 0.165922,1.127949 -0.527564,3.782217 -1.313454,5.027147 -0.894917,1.41764 -0.814804,2.580414 0.197024,2.859624 0.4,0.110379 3.031375,0.213737 5.847499,0.229686 7.063515,0.04 7.960082,-0.369758 6.383537,-2.917491 -0.842261,-1.361114 -1.467399,-3.444946 -1.467399,-4.891422 0,-1.313938 0.376297,-1.083514 0.972669,0.595608 0.636967,1.793421 2.391754,3.634227 4.409149,4.625283 1.21533,0.597038 1.885134,0.715064 4.072728,0.717654 2.281642,0.0027 2.809172,-0.09732 4.104028,-0.77813 1.929595,-1.014544 4.069653,-3.402316 4.603532,-5.136396 l 0.415552,-1.349744 0.02026,1.107543 c 0.0287,1.568763 -0.540851,3.650562 -1.354348,4.950357 -0.880505,1.406858 -0.79434,2.569639 0.210974,2.847052 0.4,0.110379 3.096829,0.213737 5.992954,0.229686 7.222662,0.03977 8.112817,-0.357992 6.528991,-2.917491 -0.862437,-1.393719 -1.47155,-3.464812 -1.459966,-4.96415 0.007,-0.90885 0.05534,-0.863329 0.873165,0.822638 0.980592,2.021515 2.63665,3.663715 4.611066,4.572482 1.898932,0.874023 5.735919,0.874023 7.634849,0 2.39531,-1.10249 4.08923,-3.024038 5.09123,-5.77539 0.1951,-0.535713 0.22173,-0.524187 0.33605,0.145454 0.18807,1.101586 -0.49815,3.762844 -1.29627,5.027147 -0.89492,1.41764 -0.81481,2.580414 0.19702,2.859624 0.4,0.110379 6.42542,0.213737 13.38982,0.229686 13.94396,0.03193 13.42753,-0.03464 14.46639,1.864839 0.47541,0.869254 0.50743,3.359915 0.50743,39.473251 0,36.747176 -0.0248,38.595305 -0.53157,39.613885 -1.07447,2.15963 4.47138,1.98821 -63.657851,1.96768 -33.655821,-0.0101 -61.4542199,-0.12674 -61.7742199,-0.2591 z M 132.41674,62.763637 l 0.0738,-39.2 H 70.816761 9.1429806 v 39.273402 39.273401 l 61.6000024,-0.0734 61.600007,-0.0734 z M 50.826167,11.2 c 0.0022,-0.8 0.05868,-1.092745 0.125546,-0.650545 0.06687,0.4422 0.06508,1.096745 -0.004,1.454545 C 50.878692,12.3618 50.823983,12 50.826167,11.2 Z m 38.339764,0.848485 c 0.01396,-0.338893 0.08289,-0.407825 0.175757,-0.175758 0.08404,0.21 0.0737,0.46091 -0.02297,0.557576 -0.09667,0.09667 -0.165423,-0.07515 -0.152791,-0.381818 z m 18.350239,-0.121212 c 0,-0.4 0.066,-0.563636 0.14673,-0.363636 0.0807,0.2 0.0807,0.527272 0,0.727272 -0.0807,0.2 -0.14673,0.03636 -0.14673,-0.363636 z M 89.188897,10.181818 c 0,-0.3999997 0.06603,-0.5636361 0.146731,-0.3636361 0.0807,0.2000001 0.0807,0.5272731 0,0.7272731 -0.0807,0.2 -0.146731,0.03636 -0.146731,-0.363637 z M 107.4932,10.30303 c 0.014,-0.3388921 0.0829,-0.4078248 0.17576,-0.175757 0.084,0.21 0.0737,0.460909 -0.023,0.557576 -0.0967,0.09667 -0.16543,-0.07515 -0.1528,-0.381819 z M 32.461622,9.8909092 c 0,-0.4 0.06603,-0.5636364 0.14673,-0.3636363 0.0807,0.2 0.0807,0.5272731 0,0.7272731 -0.0807,0.2 -0.14673,0.03636 -0.14673,-0.3636368 z m 44.150233,-4.8727273 -0.705255,-0.8 0.8,0.705255 c 0.44,0.3878902 0.8,0.7478902 0.8,0.8 0,0.2281525 -0.235578,0.042465 -0.894745,-0.705255 z"
         id="path8" />
      <path
         style="fill:#2ad4fd"
         d="m 16.398648,30.306008 c -1.056205,-0.692241 -2.031831,-1.53618 -3.019205,-2.611682 l -0.854426,-0.930689 55.836247,0.0065 c 55.285786,0.0064 55.829076,0.01202 55.108976,0.569897 -0.4,0.309885 -1.8312,1.223338 -3.18044,2.029895 l -2.45317,1.466467 -50.346837,-0.02126 C 20.888037,30.795416 17.087595,30.757547 16.398648,30.306008 Z M 124.2809,29.652787 c 1.00586,-0.644248 2.51131,-1.56881 3.34545,-2.054581 l 1.51662,-0.88322 -2.02857,2.060689 c -1.92544,1.955934 -2.0955,2.060379 -3.34545,2.054581 l -1.31689,-0.0061 z"
         id="path7" />
      <path
         style="fill:#fbfb03"
         d="m 11.179324,116.36364 v -6.98182 h 59.636367 59.636369 v 6.98182 6.98182 H 70.815691 11.179324 Z"
         id="path6" />
      <path
         style="fill:#04a8ef"
         d="m 13.215688,63.106249 c 0,-17.607322 0.09818,-31.957358 0.218182,-31.888969 5.088781,2.900157 52.403199,30.636876 52.651436,30.865393 0.344918,0.317517 -3.449221,2.691232 -49.441069,30.931655 l -3.428549,2.105235 z m 5.105455,31.755805 c 0.263327,-0.25271 49.022765,-30.24953 50.156415,-30.856241 0.448538,-0.24005 5.159487,2.407805 26.968078,15.157785 14.533534,8.496754 26.548964,15.564526 26.700964,15.70616 0.16043,0.149486 -21.61748,0.257516 -51.912728,0.257516 -31.430963,0 -52.07917,-0.105491 -51.912729,-0.26522 z M 98.59751,78.363898 C 83.717509,69.658693 71.515004,62.440141 71.480832,62.322672 71.44666,62.205203 82.832971,55.105455 96.783744,46.545455 120.41437,32.046034 122.24867,30.975815 123.60951,30.894022 c 1.28538,-0.07726 1.63522,-0.251867 2.91428,-1.454545 1.22239,-1.149397 1.28043,-1.179957 0.36492,-0.192167 l -1.08862,1.174582 -0.074,31.884826 -0.074,31.884826 z M 42.971279,45.867454 17.599595,30.981819 42.607643,30.907476 c 13.754426,-0.04089 36.257322,-0.04089 50.006435,0 l 24.998392,0.07434 -24.147936,14.836364 c -13.281362,8.16 -24.367,14.858535 -24.634751,14.885635 -0.267751,0.0271 -11.904078,-6.649265 -25.858504,-14.836364 z M 14.164956,29.000102 c -0.517903,-0.350056 -0.943358,-0.757066 -0.945455,-0.904468 -0.0021,-0.147401 -0.220466,-0.507401 -0.485264,-0.8 -1.030032,-1.138173 -0.156569,-0.455321 1.180068,0.922548 0.776061,0.8 1.361806,1.446409 1.301656,1.436465 -0.06015,-0.0099 -0.533103,-0.30449 -1.051005,-0.654545 z"
         id="path5" />
      <path
         style="fill:#0895d3"
         d="m 12.342946,98.432267 c 8e-6,-0.02225 1.215237,-0.775699 2.70051,-1.674322 l 2.700494,-1.633859 h 52.486671 52.486669 l 2.63102,1.528867 2.63102,1.528867 -16.29091,0.07244 c -20.487778,0.0911 -99.345493,0.232399 -99.345474,0.178007 z m 1.5e-5,-35.260243 c 0,-28.865645 0.05008,-32.58909 0.436363,-32.44086 0.384229,0.147442 0.436364,4.00011 0.436364,32.246159 0,28.159515 -0.05331,32.122956 -0.436364,32.44086 -0.387437,0.321545 -0.436363,-3.293979 -0.436363,-32.246159 z m 114.400009,31.66753 -0.94546,-0.576455 0.0127,-31.931549 0.0126,-31.93155 1.66007,-1.754076 c 0.91304,-0.964742 1.43098,-1.479941 1.15098,-1.144887 -0.4784,0.572469 -0.50909,2.637771 -0.50909,34.263168 0,18.509688 -0.0982,33.653489 -0.21818,33.652891 -0.12,-5.98e-4 -0.64363,-0.260492 -1.16363,-0.577542 z M 12.5369,28.024243 c -0.106666,-0.106667 -0.193939,-0.384514 -0.193939,-0.617439 0,-0.343459 0.08247,-0.355054 0.436363,-0.06135 0.24,0.199182 0.436364,0.47703 0.436364,0.617438 0,0.301242 -0.402516,0.337622 -0.678788,0.06135 z"
         id="path4" />
      <path
         style="fill:#0674a4"
         d="m 39.737908,101.89093 c 16.907221,-0.0415 44.659949,-0.0415 61.672732,-1e-5 17.01278,0.0415 3.1796,0.0754 -30.740404,0.0754 -33.920001,0 -47.839549,-0.0339 -30.932328,-0.0754 z M 12.63387,98.618183 c 0.277903,-0.179594 21.280205,-0.283617 57.835353,-0.286454 41.787077,-0.0032 57.345017,-0.09179 57.200547,-0.325539 -0.155,-0.250801 0.7975,0.235998 1.59441,0.814856 0.0667,0.04843 -26.24606,0.08604 -58.472732,0.08359 -37.936343,-0.0029 -58.4401,-0.103875 -58.157578,-0.286455 z m 0.290909,-0.706802 c 0,-0.08 0.261818,-0.285575 0.581818,-0.456834 0.32,-0.171259 0.581818,-0.245925 0.581818,-0.165925 0,0.08 -0.261818,0.285575 -0.581818,0.456834 -0.32,0.171259 -0.581818,0.245925 -0.581818,0.165925 z M 128.48363,96.048142 c -0.29393,-0.186564 -0.36698,-7.082629 -0.36126,-34.098939 0.007,-33.425888 0.0147,-33.872594 0.58662,-34.444515 0.57864,-0.578641 0.57943,-0.53189 0.57943,34.103394 0,19.075556 -0.0982,34.680824 -0.21818,34.678374 -0.12,-0.0024 -0.38398,-0.109691 -0.58661,-0.238314 z M 12.63387,95.584108 c 0,-0.08 0.261818,-0.285575 0.581818,-0.456834 0.32,-0.171259 0.581818,-0.245925 0.581818,-0.165925 0,0.08 -0.261818,0.285575 -0.581818,0.456834 -0.32,0.171259 -0.581818,0.245925 -0.581818,0.165925 z m 4.072727,0 c 0,-0.08 0.261819,-0.285575 0.581819,-0.456834 0.32,-0.171259 0.581818,-0.245925 0.581818,-0.165925 0,0.08 -0.261818,0.285575 -0.581818,0.456834 -0.32,0.171259 -0.581819,0.245925 -0.581819,0.165925 z m -2.618182,-0.872727 c 0,-0.08 0.261819,-0.285575 0.581819,-0.456834 0.32,-0.171259 0.581818,-0.245925 0.581818,-0.165925 0,0.08 -0.261818,0.285575 -0.581818,0.456834 -0.32,0.171259 -0.581819,0.245925 -0.581819,0.165925 z m 4.945455,-0.581818 c 0,-0.08 0.261818,-0.285576 0.581818,-0.456834 0.32,-0.171259 0.581819,-0.245925 0.581819,-0.165925 0,0.08 -0.261819,0.285575 -0.581819,0.456834 -0.32,0.171259 -0.581818,0.245925 -0.581818,0.165925 z m -1.163636,-1.745455 c 0,-0.08 0.261818,-0.285575 0.581818,-0.456834 0.32,-0.171259 0.581818,-0.245925 0.581818,-0.165925 0,0.08 -0.261818,0.285575 -0.581818,0.456834 -0.32,0.171259 -0.581818,0.245925 -0.581818,0.165925 z m 4.945454,-0.581818 c 0,-0.08 0.261819,-0.285575 0.581819,-0.456834 0.32,-0.171259 0.581818,-0.245925 0.581818,-0.165925 0,0.08 -0.261818,0.285575 -0.581818,0.456834 -0.32,0.171259 -0.581819,0.245925 -0.581819,0.165925 z m -1.163636,-1.745454 c 0,-0.08 0.261818,-0.285576 0.581818,-0.456835 0.32,-0.171258 0.581818,-0.245925 0.581818,-0.165925 0,0.08 -0.261818,0.285576 -0.581818,0.456834 -0.32,0.171259 -0.581818,0.245926 -0.581818,0.165926 z m 4.945455,-0.581819 c 0,-0.08 0.261818,-0.285575 0.581818,-0.456834 0.32,-0.171259 0.581818,-0.245925 0.581818,-0.165925 0,0.08 -0.261818,0.285575 -0.581818,0.456834 -0.32,0.171259 -0.581818,0.245925 -0.581818,0.165925 z M 25.43387,87.729563 c 0,-0.08 0.261819,-0.285576 0.581819,-0.456834 0.32,-0.171259 0.581818,-0.245926 0.581818,-0.165926 0,0.08 -0.261818,0.285576 -0.581818,0.456835 -0.32,0.171258 -0.581819,0.245925 -0.581819,0.165925 z m 3.781819,-2.327273 c 0,-0.08 0.261818,-0.285575 0.581818,-0.456834 0.32,-0.171259 0.581818,-0.245925 0.581818,-0.165925 0,0.08 -0.261818,0.285575 -0.581818,0.456834 -0.32,0.171259 -0.581818,0.245925 -0.581818,0.165925 z m 10.181818,-3.781818 c 0,-0.08 0.261819,-0.285576 0.581819,-0.456834 0.32,-0.171259 0.581818,-0.245926 0.581818,-0.165926 0,0.08 -0.261818,0.285576 -0.581818,0.456835 -0.32,0.171258 -0.581819,0.245925 -0.581819,0.165925 z m -1.163636,-1.745455 c 0,-0.08 0.261818,-0.285575 0.581818,-0.456834 0.32,-0.171259 0.581818,-0.245925 0.581818,-0.165925 0,0.08 -0.261818,0.285575 -0.581818,0.456834 -0.32,0.171259 -0.581818,0.245925 -0.581818,0.165925 z m 4.945455,-0.581818 c 0,-0.08 0.261818,-0.285575 0.581818,-0.456834 0.32,-0.171259 0.581818,-0.245925 0.581818,-0.165925 0,0.08 -0.261818,0.285575 -0.581818,0.456834 -0.32,0.171259 -0.581818,0.245925 -0.581818,0.165925 z m -1.163637,-1.745455 c 0,-0.08 0.261818,-0.285575 0.581819,-0.456834 0.32,-0.171259 0.581818,-0.245925 0.581818,-0.165925 0,0.08 -0.261818,0.285576 -0.581818,0.456834 -0.320001,0.171259 -0.581819,0.245925 -0.581819,0.165925 z m 4.945455,-0.581818 c 0,-0.08 0.261818,-0.285575 0.581818,-0.456834 0.32,-0.171259 0.581818,-0.245925 0.581818,-0.165925 0,0.08 -0.261818,0.285575 -0.581818,0.456834 -0.32,0.171259 -0.581818,0.245925 -0.581818,0.165925 z m -1.163636,-1.745454 c 0,-0.08 0.261818,-0.285576 0.581818,-0.456835 0.32,-0.171258 0.581818,-0.245925 0.581818,-0.165925 0,0.08 -0.261818,0.285576 -0.581818,0.456835 -0.32,0.171258 -0.581818,0.245925 -0.581818,0.165925 z m 4.945454,-0.581819 c 0,-0.08 0.261819,-0.285575 0.581819,-0.456834 0.32,-0.171259 0.581818,-0.245925 0.581818,-0.165925 0,0.08 -0.261818,0.285576 -0.581818,0.456834 -0.32,0.171259 -0.581819,0.245925 -0.581819,0.165925 z m -1.163636,-1.745454 c 0,-0.08 0.261818,-0.285575 0.581818,-0.456834 0.32,-0.171259 0.581818,-0.245925 0.581818,-0.165925 0,0.08 -0.261818,0.285575 -0.581818,0.456834 -0.32,0.171259 -0.581818,0.245925 -0.581818,0.165925 z m 13.963637,-6.109091 c 0,-0.08 0.261818,-0.285575 0.581818,-0.456834 0.32,-0.171259 0.581818,-0.245925 0.581818,-0.165925 0,0.08 -0.261818,0.285575 -0.581818,0.456834 -0.32,0.171259 -0.581818,0.245925 -0.581818,0.165925 z m -1.163636,-1.745455 c 0,-0.08 0.261818,-0.285575 0.581818,-0.456834 0.32,-0.171259 0.581818,-0.245925 0.581818,-0.165925 0,0.08 -0.261818,0.285575 -0.581818,0.456834 -0.32,0.171259 -0.581818,0.245925 -0.581818,0.165925 z m 4.945454,-0.581818 c 0,-0.08 0.261818,-0.285575 0.581818,-0.456834 0.32,-0.171259 0.581819,-0.245925 0.581819,-0.165925 0,0.08 -0.261819,0.285575 -0.581819,0.456834 -0.32,0.171259 -0.581818,0.245925 -0.581818,0.165925 z m -0.999478,-1.996653 c 0.109245,-0.286901 0.27191,-0.448355 0.361477,-0.358788 0.08957,0.08957 1.85e-4,0.324304 -0.198628,0.521637 -0.287306,0.285169 -0.320721,0.251754 -0.162849,-0.162849 z m 4.781297,-0.33062 c 0,-0.08 0.261818,-0.285575 0.581818,-0.456834 0.32,-0.171259 0.581818,-0.245925 0.581818,-0.165925 0,0.08 -0.261818,0.285575 -0.581818,0.456834 -0.32,0.171259 -0.581818,0.245925 -0.581818,0.165925 z m -1.163637,-1.745454 c 0,-0.08 0.261818,-0.285576 0.581818,-0.456834 0.32,-0.171259 0.581819,-0.245925 0.581819,-0.165925 0,0.08 -0.261819,0.285575 -0.581819,0.456834 -0.32,0.171259 -0.581818,0.245925 -0.581818,0.165925 z m 4.945455,-0.581818 c 0,-0.08 0.261818,-0.285576 0.581818,-0.456835 0.32,-0.171258 0.581818,-0.245925 0.581818,-0.165925 0,0.08 -0.261818,0.285576 -0.581818,0.456835 -0.32,0.171258 -0.581818,0.245925 -0.581818,0.165925 z m -1.163636,-1.745455 c 0,-0.08 0.261818,-0.285575 0.581818,-0.456834 0.32,-0.171259 0.581818,-0.245925 0.581818,-0.165925 0,0.08 -0.261818,0.285575 -0.581818,0.456834 -0.32,0.171259 -0.581818,0.245925 -0.581818,0.165925 z M 83.9066,54.275017 c 0,-0.08 0.261818,-0.285576 0.581818,-0.456834 0.32,-0.171259 0.581819,-0.245925 0.581819,-0.165925 0,0.08 -0.261819,0.285575 -0.581819,0.456834 -0.32,0.171259 -0.581818,0.245925 -0.581818,0.165925 z m 3.781819,-2.327273 c 0,-0.08 0.261818,-0.285575 0.581818,-0.456834 0.32,-0.171259 0.581818,-0.245925 0.581818,-0.165925 0,0.08 -0.261818,0.285575 -0.581818,0.456834 -0.32,0.171259 -0.581818,0.245925 -0.581818,0.165925 z m -1.163637,-1.745455 c 0,-0.08 0.261818,-0.285575 0.581818,-0.456834 0.32,-0.171259 0.581819,-0.245925 0.581819,-0.165925 0,0.08 -0.261819,0.285576 -0.581819,0.456834 -0.32,0.171259 -0.581818,0.245925 -0.581818,0.165925 z m 4.945455,-0.581818 c 0,-0.08 0.261818,-0.285575 0.581818,-0.456834 0.32,-0.171259 0.581818,-0.245925 0.581818,-0.165925 0,0.08 -0.261818,0.285575 -0.581818,0.456834 -0.32,0.171259 -0.581818,0.245925 -0.581818,0.165925 z M 90.3066,47.875017 c 0,-0.08 0.261819,-0.285576 0.581819,-0.456834 0.32,-0.171259 0.581818,-0.245926 0.581818,-0.165926 0,0.08 -0.261818,0.285576 -0.581818,0.456835 -0.32,0.171258 -0.581819,0.245925 -0.581819,0.165925 z m 4.945455,-0.581818 c 0,-0.08 0.261818,-0.285576 0.581818,-0.456835 0.32,-0.171258 0.581819,-0.245925 0.581819,-0.165925 0,0.08 -0.261819,0.285576 -0.581819,0.456834 -0.32,0.171259 -0.581818,0.245926 -0.581818,0.165926 z m -1.163636,-1.745455 c 0,-0.08 0.261818,-0.285575 0.581818,-0.456834 0.32,-0.171259 0.581818,-0.245925 0.581818,-0.165925 0,0.08 -0.261818,0.285575 -0.581818,0.456834 -0.32,0.171259 -0.581818,0.245925 -0.581818,0.165925 z m 3.781818,-2.327273 c 0,-0.08 0.261818,-0.285575 0.581818,-0.456834 0.32,-0.171259 0.581819,-0.245925 0.581819,-0.165925 0,0.08 -0.261819,0.285575 -0.581819,0.456834 -0.32,0.171259 -0.581818,0.245925 -0.581818,0.165925 z m 10.181823,-3.781818 c 0,-0.08 0.26181,-0.285575 0.58181,-0.456834 0.32,-0.171259 0.58182,-0.245925 0.58182,-0.165925 0,0.08 -0.26182,0.285575 -0.58182,0.456834 -0.32,0.171259 -0.58181,0.245925 -0.58181,0.165925 z m -1.16364,-1.745455 c 0,-0.08 0.26182,-0.285575 0.58182,-0.456834 0.32,-0.171259 0.58182,-0.245925 0.58182,-0.165925 0,0.08 -0.26182,0.285575 -0.58182,0.456834 -0.32,0.171259 -0.58182,0.245925 -0.58182,0.165925 z m 4.94545,-0.581818 c 0,-0.08 0.26182,-0.285575 0.58182,-0.456834 0.32,-0.171259 0.58182,-0.245925 0.58182,-0.165925 0,0.08 -0.26182,0.285575 -0.58182,0.456834 -0.32,0.171259 -0.58182,0.245925 -0.58182,0.165925 z m -1.16363,-1.745454 c 0,-0.08 0.26182,-0.285576 0.58182,-0.456835 0.32,-0.171258 0.58181,-0.245925 0.58181,-0.165925 0,0.08 -0.26181,0.285576 -0.58181,0.456835 -0.32,0.171258 -0.58182,0.245925 -0.58182,0.165925 z m 4.94545,-0.581819 c 0,-0.08 0.26182,-0.285575 0.58182,-0.456834 0.32,-0.171259 0.58182,-0.245925 0.58182,-0.165925 0,0.08 -0.26182,0.285576 -0.58182,0.456834 -0.32,0.171259 -0.58182,0.245925 -0.58182,0.165925 z m -1.16363,-1.745454 c 0,-0.08 0.26181,-0.285576 0.58181,-0.456834 0.32,-0.171259 0.58182,-0.245925 0.58182,-0.165925 0,0.08 -0.26182,0.285575 -0.58182,0.456834 -0.32,0.171259 -0.58181,0.245925 -0.58181,0.165925 z m 4.94545,-0.581818 c 0,-0.08 0.26182,-0.285576 0.58182,-0.456835 0.32,-0.171258 0.58182,-0.245925 0.58182,-0.165925 0,0.08 -0.26182,0.285576 -0.58182,0.456835 -0.32,0.171258 -0.58182,0.245925 -0.58182,0.165925 z m 4.77176,-5.3566 c 0.15596,-0.252342 -13.64705,-0.353447 -55.882323,-0.409329 L 12.197506,26.616693 68.41569,26.54471 c 34.98524,-0.04479 56.21818,0.03141 56.21818,0.201758 0,0.150557 -0.15113,0.367148 -0.33585,0.481312 -0.20782,0.128441 -0.2569,0.07982 -0.12875,-0.127545 z m -60.939234,-10.15478 -0.705255,-0.8 0.8,0.705255 c 0.44,0.38789 0.8,0.74789 0.8,0.8 0,0.228152 -0.235578,0.04246 -0.894745,-0.705255 z M 32.472401,11.2 c 0.0059,-0.48 0.07113,-0.641145 0.144885,-0.3581 0.07376,0.283045 0.06891,0.675773 -0.01078,0.872728 C 32.52682,11.911583 32.466473,11.68 32.472401,11.2 Z m 56.69353,-0.02424 c 0.01396,-0.338893 0.08289,-0.407826 0.175757,-0.175758 0.08404,0.21 0.0737,0.460909 -0.02297,0.557576 -0.09667,0.09667 -0.165423,-0.07515 -0.152791,-0.381818 z M 48.10912,5.0181819 47.106599,3.9272728 48.197508,4.929794 c 0.6,0.5513867 1.090909,1.0422958 1.090909,1.0909091 0,0.2221442 -0.246172,0.012873 -1.179297,-1.0025212 z M 42.833871,2.4194577 c 0.21,-0.084035 0.460909,-0.0737 0.557576,0.022967 0.09667,0.096667 -0.07515,0.1654226 -0.381818,0.152791 -0.338893,-0.013959 -0.407826,-0.082892 -0.175758,-0.175758 z m 28.200001,0.00606 c 0.2,-0.080702 0.527273,-0.080702 0.727273,0 0.2,0.080702 0.03636,0.1467304 -0.363636,0.1467304 -0.4,0 -0.563637,-0.066029 -0.363637,-0.1467304 z m 28.527274,-0.00606 c 0.21,-0.084035 0.460914,-0.0737 0.557574,0.022967 0.0967,0.096667 -0.0751,0.1654226 -0.381816,0.152791 -0.338893,-0.013959 -0.407825,-0.082892 -0.175758,-0.175758 z"
         id="path3" />
      <path
         style="fill:#0a0d0d"
         d="m 9.1429606,116.36364 v -9.01818 H 70.815691 132.48842 v 9.01818 9.01818 H 70.815691 9.1429606 Z m 121.3090994,0 v -6.98182 H 70.815691 11.179324 v 6.98182 6.98182 H 70.815691 130.45206 Z M 9.2146341,62.763637 9.2884152,23.709091 H 70.815691 132.34297 l 0.0738,39.054546 0.0738,39.054543 H 70.815691 9.1408529 Z M 129.26418,98.798477 C 128.84836,98.41901 69.158161,63.622628 68.914979,63.617931 68.749588,63.614736 56.83686,70.853545 42.442251,79.704172 28.047641,88.5548 15.386597,96.332303 14.306597,96.987513 c -1.08,0.65521 -1.963636,1.355606 -1.963636,1.556435 0,0.29171 11.769285,0.365144 58.521214,0.365144 32.186665,0 58.466665,-0.04978 58.400005,-0.110615 z m 0.0242,-37.305132 c 0,-33.480995 -0.02,-34.792339 -0.52837,-34.659395 -0.2906,0.07599 -12.23606,7.333757 -26.54545,16.128361 -14.309402,8.794604 -27.162546,16.687938 -28.562546,17.540743 -1.4,0.852805 -2.545454,1.644315 -2.545454,1.758911 0,0.114595 12.6,7.572177 28.000001,16.572403 15.399999,9.000225 28.392729,16.607653 28.872729,16.905394 0.48,0.297741 0.97091,0.543552 1.09091,0.546248 0.12,0.0027 0.21818,-15.654004 0.21818,-34.792665 z M 39.826529,79.038013 C 54.542492,69.991334 66.612007,62.481412 66.647674,62.349298 66.700404,62.153983 13.56183,30.919742 12.622529,30.59394 c -0.177733,-0.06165 -0.279568,11.791418 -0.279568,32.540215 0,25.991761 0.07404,32.608189 0.363636,32.494776 0.2,-0.07832 12.40397,-7.544238 27.119932,-16.590918 z M 96.754151,44.060461 C 112.008,34.693715 124.53206,26.904623 124.58539,26.75137 124.64699,26.574414 104.18418,26.472728 68.51266,26.472728 H 12.342961 v 0.809535 c 0,0.766269 1.504275,1.690621 28.145456,17.294921 15.48,9.066962 28.232307,16.491762 28.33846,16.499555 0.106153,0.0078 12.673426,-7.649531 27.927274,-17.016278 z M 39.18981,19.377367 c -4.135789,-1.351861 -6.485487,-4.355935 -6.48159,-8.286669 0.0023,-2.2837692 0.424326,-3.5686464 1.703593,-5.1862276 2.061575,-2.6067791 5.624126,-3.9279216 8.869945,-3.2893457 2.20554,0.4339134 3.098301,0.8872364 4.755356,2.4146556 2.031328,1.8724135 2.552776,3.1010875 2.556903,6.0247657 0.0031,2.19751 -0.09199,2.645095 -0.854388,4.021396 -1.470159,2.653974 -4.348702,4.403961 -7.56068,4.596455 -1.007757,0.06039 -2.288511,-0.06602 -2.989139,-0.29503 z m 27.946744,-0.177411 c -6.009238,-1.964131 -8.106616,-9.077008 -4.017603,-13.6249738 1.902165,-2.1156653 4.01156,-3.057013 6.824012,-3.0453132 3.700108,0.015393 6.593056,1.6820484 8.282181,4.7714451 0.724306,1.3247496 0.857934,1.8914783 0.85072,3.6079769 -0.02584,6.148424 -5.936505,10.252892 -11.93931,8.290865 z m 28.49784,0.05941 c -4.025223,-1.43849 -6.197276,-4.365139 -6.197276,-8.350276 0,-2.0992263 0.449468,-3.4208824 1.70197,-5.0046206 2.060599,-2.605544 5.624282,-3.927891 8.866502,-3.2900223 3.31544,0.6522728 5.50124,2.3128233 6.81142,5.1746472 0.62078,1.3559501 0.70615,1.8876387 0.59105,3.6810627 -0.15298,2.383768 -1.17409,4.628592 -2.68806,5.909495 -2.456,2.0779 -6.303582,2.873924 -9.085606,1.879714 z"
         id="path2" />
    </g>
  </g>
</svg>
